<svg xmlns="http://www.w3.org/2000/svg" width="1080" height="1920" viewBox="0 0 1080 1920" role="img" aria-labelledby="title desc">
  <title id="title">Controlled Format 02 coach fixture, pre-repair</title>
  <desc id="desc">Synthetic right-side coach with a leftward gaze and an incorrect open-palm explanatory gesture.</desc>
  <g id="non_production_readiness_proof" transform="translate(560 300)">
    <path fill="#E6B98A" d="M184 110c0-81 62-110 126-110s126 29 126 110v154c0 89-52 151-126 151s-126-62-126-151z"/>
    <path fill="#2F3142" d="M168 112C168 30 227-20 310-20c91 0 146 55 146 151-32-39-67-55-110-59-54-5-97 12-178 40z"/>
    <ellipse cx="252" cy="181" rx="13" ry="9" fill="#222532"/>
    <ellipse cx="339" cy="174" rx="13" ry="9" fill="#222532"/>
    <path d="M238 153l36-9M328 146l34 7" stroke="#5B3C31" stroke-width="9" stroke-linecap="round"/>
    <path d="M269 286c24 10 51 9 77-3" fill="none" stroke="#8B5445" stroke-width="10" stroke-linecap="round"/>
    <path fill="#62748A" d="M104 520c43-90 119-135 206-135s164 45 207 135l76 537H27z"/>
    <path d="M181 630c-54 78-88 172-98 284" fill="none" stroke="#E6B98A" stroke-width="72" stroke-linecap="round"/>
    <path d="M438 632c66 76 102 130 115 207" fill="none" stroke="#E6B98A" stroke-width="72" stroke-linecap="round"/>
    <path d="M552 837l75-34m-75 34l62 26m-62-26l48 55" fill="none" stroke="#E6B98A" stroke-width="28" stroke-linecap="round"/>
  </g>
</svg>
